# xmcd
#
# Track frame offsets: 
#        150
#        20769
#        39889
#        56533
#        77456
#        98462
#        120635
#        132342
#        155860
#        174770
#
# Disc length: 2610 seconds
#
# Revision: 1
# Processed by: cddbd v1.5.2PL0 Copyright (c) Steve Scherf et al.
# Submitted via: ExactAudioCopyFreeDBPlugin 1.0
#
DISCID=700a300a
DTITLE=Various Artist - Reason To Believe (A Country Music Tribute to
DTITLE=Bruce Springsteen)
DYEAR=2004
DGENRE=Country
TTITLE0=John Berry - Thunder Road
TTITLE1=Travis Tritt - Tougher Than the Rest
TTITLE2=The Nitty Gritty Dirt Band - Cadillac Ranch
TTITLE3=Emmylou Harris - The Price You Pay
TTITLE4=Hank Williams III - Atlantic City
TTITLE5=Southern Pacific - Pink Cadillac
TTITLE6=The Beat Farmers - Reason To Believe
TTITLE7=Steve Earle - State Trooper (Live)
TTITLE8=The Nitty Gritty Dirt Band - Angelyne
TTITLE9=Allan Clarke - Blinded By the Light
EXTD=
EXTT0=
EXTT1=
EXTT2=
EXTT3=
EXTT4=
EXTT5=
EXTT6=
EXTT7=
EXTT8=
EXTT9=
PLAYORDER=
